<svg xmlns="http://www.w3.org/2000/svg" xmlns:xlink="http://www.w3.org/1999/xlink" viewBox="0,0,256,256" width="48px" height="48px"><g fill="#ffffff" fill-rule="nonzero" stroke="none" stroke-width="1" stroke-linecap="butt" stroke-linejoin="miter" stroke-miterlimit="10" stroke-dasharray="" stroke-dashoffset="0" font-family="none" font-weight="none" font-size="none" text-anchor="none" style="mix-blend-mode: normal"><g transform="scale(5.12,5.12)"><path d="M25,2c-12.69071,0 -23,10.3093 -23,23c0,12.6907 10.30929,23 23,23c12.69071,0 23,-10.3093 23,-23c0,-12.6907 -10.30929,-23 -23,-23zM25,4c11.60983,0 21,9.39017 21,21c0,11.60983 -9.39017,21 -21,21c-11.60983,0 -21,-9.39017 -21,-21c0,-11.60982 9.39017,-21 21,-21zM25,8c-3.8165,0 -7,2.93978 -7,6.61523c0,3.79392 3.30022,7.57976 6.35742,10.14844c0.3717,0.31167 0.91346,0.31167 1.28516,0c3.05629,-2.56774 6.35742,-6.35431 6.35742,-10.14844c0,-3.67486 -3.18451,-6.61408 -7,-6.61523zM25,10c2.80051,0.00085 5,2.10009 5,4.61523c0,2.28699 -2.43651,5.5477 -5,7.91016c-2.56418,-2.3631 -5,-5.62297 -5,-7.91016c0,-2.51654 2.19851,-4.61523 5,-4.61523zM15.5293,24.95508c-1.56221,0.03672 -3.04144,0.34562 -4.28516,1.05664c-3.21321,1.83815 -4.18176,6.07813 -2.25195,9.38867c1.93101,3.31063 6.10284,4.59303 9.31641,2.75586v0.00195c3.31673,-1.89493 4.97141,-6.65797 5.67578,-10.59766c0.08582,-0.48023 -0.18736,-0.95231 -0.64648,-1.11719c-1.89707,-0.68232 -4.09001,-1.26499 -6.22461,-1.43945c-0.53365,-0.04362 -1.06325,-0.06107 -1.58398,-0.04883zM34.47266,24.95703c-0.52056,-0.01212 -1.05038,0.00525 -1.58398,0.04883c-2.13443,0.17432 -4.329,0.75519 -6.22656,1.4375c-0.45913,0.16488 -0.73231,0.63696 -0.64648,1.11719c0.70435,3.93852 2.35832,8.70179 5.67578,10.59766c3.2136,1.836 7.3854,0.55282 9.31641,-2.75781c1.93095,-3.31053 0.96253,-7.55166 -2.25195,-9.38867c-1.24361,-0.71051 -2.72153,-1.01834 -4.2832,-1.05469zM15.57813,27.04688c0.44589,-0.00561 0.90909,0.01087 1.38281,0.04688c1.58201,0.12025 3.22581,0.55281 4.75977,1.02734c-0.77292,3.40599 -2.39345,7.14998 -4.4043,8.29883c-2.21243,1.26483 -5.17872,0.40202 -6.5957,-2.02734c-1.41619,-2.42946 -0.69521,-5.38064 1.51758,-6.64648v0.00195c0.82254,-0.47023 2.00217,-0.68435 3.33984,-0.70117zM34.42188,27.04883c1.33818,0.01636 2.51916,0.22923 3.3418,0.69922c2.21352,1.26498 2.93267,4.21506 1.51563,6.64453c-1.41699,2.42936 -4.3833,3.29329 -6.5957,2.0293c-2.01195,-1.14979 -3.63149,-4.89358 -4.4043,-8.29883c1.53425,-0.4745 3.17782,-0.90718 4.75977,-1.02734c0.47371,-0.03598 0.93675,-0.05233 1.38281,-0.04687z"></path></g></g></svg>